<svg width="24" height="24" viewBox="0 0 24 24" fill="none" xmlns="http://www.w3.org/2000/svg">
<g id="cash-register_svgrepo.com" clip-path="url(#clip0_176_10043)">
<path id="Vector" d="M7.99998 7.33203H4V12.6654H7.99998V7.33203Z" fill="#D3D3D3"/>
<path id="Vector_2" d="M12 0H0V8.00002H12V0Z" fill="#D3D3D3"/>
<path id="SVGCleanerId_0" d="M24 12H0V24H24V12Z" fill="#D3D3D3"/>
<g id="Group">
<path id="SVGCleanerId_0_1_" d="M0 11C-0.552285 11 -1 11.4477 -1 12V24C-1 24.5523 -0.552285 25 0 25H24C24.5523 25 25 24.5523 25 24V12C25 11.4477 24.5523 11 24 11H0Z" fill="#D3D3D3" stroke="#6E6E6E" stroke-width="2" stroke-linejoin="round"/>
</g>
<path id="SVGCleanerId_1" d="M24 12H12V24H24V12Z" fill="#D3D3D3"/>
<g id="Group_2">
<path id="SVGCleanerId_1_1_" d="M24 12H12V24H24V12Z" fill="#D3D3D3"/>
</g>
<g id="Group_3">
<path id="Vector_3" d="M9 3H3V5.00002H9V3Z" fill="#6E6E6E"/>
<path id="Vector_4" d="M5.00002 15H3V17H5.00002V15Z" fill="#6E6E6E"/>
<path id="Vector_5" d="M9.00002 15H7V17H9.00002V15Z" fill="#6E6E6E"/>
<path id="Vector_6" d="M13 15H11V17H13V15Z" fill="#6E6E6E"/>
</g>
<g id="Group_4">
<path id="Vector_7" d="M17 15H15V17H17V15Z" fill="#6E6E6E"/>
<path id="Vector_8" d="M21 15H19V17H21V15Z" fill="#6E6E6E"/>
</g>
<g id="Group_5">
<path id="Vector_9" d="M5.00002 19H3V21H5.00002V19Z" fill="#6E6E6E"/>
<path id="Vector_10" d="M9.00002 19H7V21H9.00002V19Z" fill="#6E6E6E"/>
<path id="Vector_11" d="M13 19H11V21H13V19Z" fill="#6E6E6E"/>
</g>
<g id="Group_6">
<path id="Vector_12" d="M13 15H12V17H13V15Z" fill="#6E6E6E"/>
<path id="Vector_13" d="M13 19H12V21H13V19Z" fill="#6E6E6E"/>
<path id="Vector_14" d="M17 19H15V21H17V19Z" fill="#6E6E6E"/>
<path id="Vector_15" d="M21 19H19V21H21V19Z" fill="#6E6E6E"/>
</g>
</g>
<defs>
<clipPath id="clip0_176_10043">
<rect width="24" height="24" fill="white"/>
</clipPath>
</defs>
</svg>
