<svg width="26" height="26" viewBox="0 0 26 26" fill="none" xmlns="http://www.w3.org/2000/svg">
<g id="Frame 1171275235">
<g id="Group">
<path id="Vector" d="M19.8589 21.9736V21.6847C20.751 21.4512 21.1461 20.4632 20.8121 19.7092C20.775 19.7211 20.7372 19.7316 20.6989 19.7408C20.7105 19.7658 20.7214 19.7916 20.7316 19.8182C20.8057 20.0122 20.8152 20.1863 20.8142 20.2964L20.8142 20.2982C20.8116 20.5435 20.7474 20.7962 20.5988 21.0228C20.4532 21.2449 20.2631 21.3864 20.0926 21.4733C20.004 21.5185 19.9154 21.5518 19.8305 21.5763C19.8012 21.5847 19.7724 21.5921 19.7442 21.5986V21.673V21.6847V21.9691L19.8589 21.9736ZM19.8589 21.9736H19.7442H18.8589H18.7442M19.8589 21.9736C19.8294 22.7131 18.7733 22.7126 18.7442 21.9736M18.7442 21.9736L18.8589 21.9691V21.6847V21.673V21.583C18.8322 21.5761 18.8054 21.5686 18.7785 21.5603C18.6861 21.532 18.5934 21.4954 18.5033 21.4495C18.2407 21.3154 17.764 20.9603 17.764 20.2964C17.764 20.5409 17.9622 20.739 18.2066 20.739C18.3139 20.739 18.4122 20.7009 18.4888 20.6375L18.7442 21.9736ZM13.5156 19.2869V19.3076L13.5165 19.3283C13.8297 26.8926 24.678 26.8887 24.99 19.3281L24.9908 19.3075V19.2869C24.9908 16.1223 22.4178 13.5493 19.2532 13.5493C16.0886 13.5493 13.5156 16.1223 13.5156 19.2869ZM19.0385 21.6203C19.1384 21.636 19.2345 21.6432 19.3229 21.6436L19.3245 21.6436C19.3834 21.6438 19.4709 21.6419 19.5751 21.6286C19.5809 21.6333 19.5866 21.6382 19.5923 21.6432C19.6032 21.6529 19.6133 21.6629 19.6228 21.673C19.6265 21.6768 19.6301 21.6808 19.6335 21.6847C19.7128 21.7746 19.741 21.8742 19.7434 21.9342L19.3041 21.9515L18.8597 21.9338C18.8621 21.8741 18.8902 21.7746 18.9695 21.6847C18.973 21.6808 18.9765 21.6768 18.9802 21.673C18.9897 21.6629 18.9999 21.6529 19.0108 21.6432C19.02 21.635 19.0292 21.6274 19.0385 21.6203ZM19.3005 20.7972L19.0359 20.7165C19.0241 20.7129 19.0127 20.7091 19.0016 20.7053C19.0015 20.7052 19.0015 20.7052 19.0014 20.7052C18.9795 20.6976 18.9587 20.6894 18.9392 20.6807C18.9111 20.6379 18.8848 20.5882 18.8632 20.5318C18.8564 20.514 18.8506 20.4967 18.8455 20.4801C18.8964 20.5301 18.9667 20.5682 19.0434 20.595C19.0434 20.595 19.0435 20.595 19.0435 20.595C19.1364 20.6274 19.2387 20.6432 19.3273 20.6436C19.5106 20.6441 19.8109 20.5988 19.8143 20.2874L19.3005 20.7972ZM18.7293 18.2347C18.7287 18.3013 18.736 18.3593 18.7916 18.42L19.2163 17.8785C19.036 17.8787 18.7321 17.9229 18.7293 18.2347Z" fill="#D4D4D4" stroke="#6E6E6E" stroke-width="2"/>
<path id="Vector_2" d="M19.2446 14.4347L19.2446 14.4347H19.2579C20.1387 14.4347 20.9631 14.67 21.6748 15.0809L23.1748 15.9469V14.2149V5.55736C23.1748 4.69727 22.4775 4 21.6174 4H9.94994C9.08984 4 8.39258 4.69727 8.39258 5.55736V20.0861C8.39258 20.9462 9.08984 21.6435 9.94994 21.6435H13.5646H14.8468L14.5345 20.4C13.7892 17.4321 16.1813 14.3937 19.2446 14.4347Z" fill="#D4D4D4" stroke="#6E6E6E" stroke-width="2"/>
<path id="Vector_3" d="M4.96875 9.09082H3.96875V10.0908V16.9278V17.9278H4.96875H8.31294H9.31294V16.9278V10.0908V9.09082H8.31294H4.96875Z" fill="#D4D4D4" stroke="#6E6E6E" stroke-width="2"/>
<path id="Vector_4" d="M3.96875 8.97594V9.97594H4.96875H8.31294H9.31294V8.97594V8.49289C9.31294 7.01862 8.11512 5.8208 6.64084 5.8208C5.16657 5.8208 3.96875 7.01862 3.96875 8.49289V8.97594Z" fill="#D4D4D4" stroke="#6E6E6E" stroke-width="2"/>
<path id="Vector_5" d="M9.04998 18.4269L9.62693 17.0422H8.12691H5.1543H3.65431L4.23122 18.4268L5.20248 20.758C5.73122 22.0349 7.55024 22.0342 8.07864 20.758L9.04998 18.4269Z" fill="#D4D4D4" stroke="#6E6E6E" stroke-width="2"/>
</g>
</g>
</svg>
