<svg width="24" height="24" viewBox="0 0 24 24" fill="none" xmlns="http://www.w3.org/2000/svg">
<g id="icons8-profile 1">
<path id="Vector" opacity="0.3" d="M8 9C7.46957 9 6.96086 9.21071 6.58579 9.58579C6.21071 9.96086 6 10.4696 6 11C6 11.5304 6.21071 12.0391 6.58579 12.4142C6.96086 12.7893 7.46957 13 8 13C8.53043 13 9.03914 12.7893 9.41421 12.4142C9.78929 12.0391 10 11.5304 10 11C10 10.4696 9.78929 9.96086 9.41421 9.58579C9.03914 9.21071 8.53043 9 8 9ZM13 21C13 20.8 13 19.4 13 19.2C13 17.9 10.7 17 8 17C5.3 17 3 17.9 3 19.2C3 19.4 3 20.8 3 21H13Z" fill="#6E6E6E"/>
<path id="Vector_2" d="M19.5 9H14V3.5L19.5 9ZM8 14C6.3 14 5 12.7 5 11C5 9.3 6.3 8 8 8C9.7 8 11 9.3 11 11C11 12.7 9.7 14 8 14ZM8 10C7.4 10 7 10.4 7 11C7 11.6 7.4 12 8 12C8.6 12 9 11.6 9 11C9 10.4 8.6 10 8 10ZM14 22H2V19.2C2 17.3 4.5 16 8 16C11.5 16 14 17.3 14 19.2V22ZM4 20H12V19.2C12 18.8 10.6 18 8 18C5.4 18 4 18.9 4 19.2V20Z" fill="#6E6E6E"/>
<path id="Vector_3" d="M15 2H7C5.9 2 5 2.9 5 4V7C5.6 6.6 6.3 6.2 7 6.1V4H14.2L19 8.8V20H16V22H19C20.1 22 21 21.1 21 20V8L15 2Z" fill="#6E6E6E"/>
<path id="Vector_4" opacity="0.3" d="M14 3H6V6.4C6.6 6.1 7.3 6 8 6C10.8 6 13 8.2 13 11C13 12.4 12.5 13.6 11.6 14.5C14.3 15.3 16 17 16 19.2V21H20V9L14 3Z" fill="#6E6E6E"/>
</g>
</svg>
