<svg width="24" height="24" viewBox="0 0 24 24" fill="none" xmlns="http://www.w3.org/2000/svg">
<g id="icons8-check-for-payment 1">
<path id="Vector" d="M6 8H3C2.448 8 2 7.552 2 7V5C2 4.448 2.448 4 3 4H21C21.552 4 22 4.448 22 5V7C22 7.552 21.552 8 21 8H18" stroke="#6E6E6E" stroke-width="2" stroke-miterlimit="10"/>
<path id="Vector_2" d="M9 11H13V13H9V11Z" fill="#6E6E6E"/>
<path id="Vector_3" d="M17 4V18H7V4H5V21H7C7 20.448 7.448 20 8 20C8.552 20 9 20.448 9 21H11C11 20.448 11.448 20 12 20C12.552 20 13 20.448 13 21H15C15 20.448 15.448 20 16 20C16.552 20 17 20.448 17 21H19V4H17Z" fill="#6E6E6E"/>
<path id="Vector_4" d="M9 7H15V9H9V7Z" fill="#6E6E6E"/>
<path id="Vector_5" opacity="0.3" d="M6 4H18V19H6V4Z" fill="#6E6E6E"/>
</g>
</svg>
