<svg width="24" height="24" viewBox="0 0 24 24" fill="none" xmlns="http://www.w3.org/2000/svg">
<g id="icons8-favorite-folder 1">
<path id="Vector" d="M20 6H12L10 4H4C2.9 4 2 4.9 2 6V18C2 19.1 2.9 20 4 20H20C21.1 20 22 19.1 22 18V8C22 6.9 21.1 6 20 6ZM20 18H4V8H20V18Z" fill="#6E6E6E"/>
<path id="Vector_2" d="M15.7492 10.877C15.9212 11.212 15.9962 11.542 15.9992 11.863C16.0152 13.34 14.5062 14.613 13.8642 15.155L13.7352 15.265C13.1992 15.731 11.9992 16.5 11.9992 16.5C11.9992 16.5 10.7992 15.731 10.2632 15.264L10.1332 15.154C9.49117 14.612 7.98217 13.339 7.99817 11.862C8.00217 11.541 8.07717 11.211 8.24817 10.876C8.66917 10.056 9.42317 9.50103 10.3982 9.49903C11.0132 9.49803 11.7482 9.84903 11.9982 10.245C12.2732 9.84903 12.9842 9.49803 13.5982 9.49903C14.5742 9.50103 15.3282 10.057 15.7492 10.877Z" fill="#6E6E6E"/>
<path id="Vector_3" opacity="0.3" d="M3 7H21V19H3V7Z" fill="#6E6E6E"/>
</g>
</svg>
