<svg width="339" height="229" viewBox="0 0 339 229" fill="none" xmlns="http://www.w3.org/2000/svg">
<path d="M25.7629 333.49C28.9276 339.73 32.4486 345.792 36.1927 351.676C49.2524 372.001 65.4324 390.141 84.0636 405.385C123.421 437.656 173.698 457 228.522 457C354.484 457 457 354.439 457 228.522C457 102.605 354.484 0 228.522 0C173.788 0 123.465 19.3443 84.0636 51.6147C59.9945 71.2265 40.0259 95.7413 25.6291 123.465C9.40476 154.621 0.178333 190.101 0.0446158 227.542C0.0446158 227.898 0 228.166 0 228.478C0 266.32 9.31574 301.977 25.7629 333.446V333.49ZM142.453 123.465C165.898 104.255 195.895 92.6658 228.522 92.6658C303.404 92.6658 364.379 153.596 364.379 228.478C364.379 303.359 303.404 364.334 228.522 364.334C195.895 364.334 165.854 352.745 142.453 333.535C112.099 308.574 92.666 270.777 92.666 228.522C92.666 186.268 112.099 148.47 142.453 123.51V123.465Z" fill="#030915"/>
</svg>
