<svg width="14" height="14" viewBox="0 0 14 14" fill="none" xmlns="http://www.w3.org/2000/svg">
<path d="M10.161 5.96237C10.2683 6.06962 10.405 6.12 10.5409 6.12C10.6742 6.12 10.8185 6.07129 10.922 5.96116C11.129 5.75282 11.1286 5.41043 10.9208 5.20262L7.37995 1.66179C7.17173 1.45357 6.82841 1.45357 6.62019 1.66179L3.07936 5.20262C2.87114 5.41084 2.87114 5.75415 3.07936 5.96237C3.28758 6.17059 3.63089 6.17059 3.83911 5.96237L7.00007 2.80142L10.161 5.96237Z" fill="#18D837" stroke="#18D837" stroke-width="0.2"/>
<path d="M6.4625 11.9583C6.4625 12.2527 6.7056 12.4958 7 12.4958C7.2944 12.4958 7.5375 12.2527 7.5375 11.9583V2.14084C7.5375 1.84644 7.2944 1.60334 7 1.60334C6.7056 1.60334 6.4625 1.84644 6.4625 2.14084V11.9583Z" fill="#18D837" stroke="#18D837" stroke-width="0.2"/>
</svg>
