<svg width="24" height="24" viewBox="0 0 24 24" fill="none" xmlns="http://www.w3.org/2000/svg">
<rect x="4" y="7" width="16" height="12" fill="#D3D3D3"/>
<path d="M7 12C7 11.4477 7.44772 11 8 11H16C16.5523 11 17 11.4477 17 12C17 12.5523 16.5523 13 16 13H8C7.44772 13 7 12.5523 7 12Z" fill="#6E6E6E"/>
<path d="M7 16C7 15.4477 7.44772 15 8 15H11C11.5523 15 12 15.4477 12 16C12 16.5523 11.5523 17 11 17H8C7.44772 17 7 16.5523 7 16Z" fill="#6E6E6E"/>
<path fill-rule="evenodd" clip-rule="evenodd" d="M17 4C17 3.44772 16.5523 3 16 3C15.4477 3 15 3.44772 15 4V5H9V4C9 3.44772 8.55228 3 8 3C7.44772 3 7 3.44772 7 4V5H4C2.89543 5 2 5.89543 2 7V19C2 20.1046 2.89543 21 4 21H20C21.1046 21 22 20.1046 22 19V7C22 5.89543 21.1046 5 20 5H17V4ZM7 8V7H4V19H20V7H17V8C17 8.55228 16.5523 9 16 9C15.4477 9 15 8.55228 15 8V7H9V8C9 8.55228 8.55228 9 8 9C7.44772 9 7 8.55228 7 8Z" fill="#6E6E6E"/>
</svg>
