<svg width="24" height="24" viewBox="0 0 24 24" fill="none" xmlns="http://www.w3.org/2000/svg">
<path d="M20 6H12L10 4H4C2.9 4 2 4.9 2 6V18C2 19.1 2.9 20 4 20H20C21.1 20 22 19.1 22 18V8C22 6.9 21.1 6 20 6ZM20 18H4V8H20V18Z" fill="#6E6E6E"/>
<path d="M15.7501 10.877C15.9221 11.212 15.9971 11.542 16.0001 11.863C16.0161 13.34 14.5071 14.613 13.8651 15.155L13.7361 15.265C13.2001 15.731 12.0001 16.5 12.0001 16.5C12.0001 16.5 10.8001 15.731 10.2641 15.264L10.1341 15.154C9.49215 14.612 7.98315 13.339 7.99915 11.862C8.00315 11.541 8.07815 11.211 8.24915 10.876C8.67015 10.056 9.42415 9.501 10.3991 9.499C11.0141 9.498 11.7491 9.849 11.9991 10.245C12.2741 9.849 12.9851 9.498 13.5991 9.499C14.5751 9.501 15.3291 10.057 15.7501 10.877Z" fill="#6E6E6E"/>
<path opacity="0.3" d="M3 7H21V19H3V7Z" fill="#6E6E6E"/>
</svg>
