<svg width="24" height="24" viewBox="0 0 24 24" fill="none" xmlns="http://www.w3.org/2000/svg">
<path d="M16.9996 22H10.1996C9.39961 22 8.59961 21.7 8.09961 21.1V21L3.09961 14.9L4.39961 13.5C5.09961 12.7 6.19961 12.5 7.19961 13L7.29961 13.1L8.99961 14.2V9H11.0996L18.2996 10.2C19.2996 10.4 19.9996 11.2 19.9996 12.2V19C19.9996 20.7 18.6996 22 16.9996 22ZM9.59961 19.7C9.79961 19.9 9.99961 20 10.1996 20H16.9996C17.5996 20 17.9996 19.6 17.9996 19V12.2L10.9996 11V18L6.29961 14.8C6.09961 14.8 5.99961 14.8 5.89961 14.9L5.69961 15L9.59961 19.7Z" fill="#6E6E6E"/>
<path opacity="0.3" d="M19.0004 19C19.0004 20.1 18.1004 21 17.0004 21H10.2004C9.70039 21 9.20039 20.8 8.80039 20.4L4.40039 15L5.10039 14.2C5.50039 13.8 6.20039 13.6 6.70039 13.9L9.90039 16.1V10H10.8004L18.0004 11.2C18.5004 11.3 18.8004 11.7 18.8004 12.2V19H19.0004Z" fill="#6E6E6E"/>
<path d="M9 3H11V10H9V3ZM12 2H14V10H12V2ZM15 3H17V11H15V3ZM18 5H20V13H18V5ZM14.5 18.3C14.5 18.3 12 16.5 12 15.4C12 14.7 12.5 14 13.2 14C13.9 14 14.2 14.7 14.5 15C14.8 14.7 15.1 14 15.8 14C16.6 14 17 14.7 17 15.4C17 16.5 14.5 18.3 14.5 18.3Z" fill="#6E6E6E"/>
</svg>
