<svg width="24" height="24" viewBox="0 0 24 24" fill="none" xmlns="http://www.w3.org/2000/svg">
<path d="M9 15V13H11L16.146 18.146L14.146 20.146L9 15ZM16.561 21.854L17.854 20.561C18.049 20.366 18.049 20.049 17.854 19.854L16.854 18.854L14.854 20.854L15.854 21.854C16.049 22.049 16.365 22.049 16.561 21.854Z" fill="#6E6E6E"/>
<path opacity="0.3" d="M3 8V16H7.172L7 15.828V11H11.828L16.828 16H21V8H3Z" fill="#6E6E6E"/>
<path d="M20 7H4C2.897 7 2 7.897 2 9V15C2 16.103 2.897 17 4 17H8.172L7 15.828V15H4V9H20V15H15.828L17.828 17H20C21.103 17 22 16.103 22 15V9C22 7.897 21.103 7 20 7Z" fill="#6E6E6E"/>
</svg>
