<svg width="22" height="20" viewBox="0 0 22 20" fill="none" xmlns="http://www.w3.org/2000/svg">
<path d="M2 8.00009V18.5001H20V8.00009H2ZM1.25 6.50009H20.75C20.9489 6.50009 21.1397 6.57911 21.2803 6.71976C21.421 6.86041 21.5 7.05118 21.5 7.25009V19.2501C21.5 19.449 21.421 19.6398 21.2803 19.7804C21.1397 19.9211 20.9489 20.0001 20.75 20.0001H1.25C1.05109 20.0001 0.860322 19.9211 0.71967 19.7804C0.579018 19.6398 0.5 19.449 0.5 19.2501V7.25009C0.5 7.05118 0.579018 6.86041 0.71967 6.71976C0.860322 6.57911 1.05109 6.50009 1.25 6.50009ZM2.75 3.50009H19.25V5.00009H2.75V3.50009ZM5 0.500092H17V2.00009H5V0.500092Z" fill="#EFF0F8"/>
</svg>
